Alice in wonderland         (2010) MKV 3D


PLOT:

19-year-old Alice returns to the magical world from her childhood adventure, where she reunites with her old friends and learns of her true destiny: to end the Red Queen's reign of terror.

INFO:
Format                           : Matroska
File size                        : 11.8 GiB
Duration                         : 1h 48mn
Overall bit rate                 : 15.5 Mbps
Movie name                       : ALICE_IN_WONDERLAND
Writing library                  : libebml v0.7.8 + libmatroska v0.8.1

Video
ID                               : 1
Format                           : AVC
Format/Info                      : Advanced Video Codec
Format profile                   : High@L5.1
Format settings, CABAC           : Yes
Format settings, ReFrames        : 2 frames
Codec ID                         : V_MPEG4/ISO/AVC
Duration                         : 1h 48mn
Bit rate                         : 13.6 Mbps
Width                            : 1 920 pixels
Height                           : 1 080 pixels
Display aspect ratio             : 16:9
Frame rate                       : 23.976 fps
Color space                      : YUV
Chroma subsampling               : 4:2:0
Bit depth                        : 8 bits
Scan type                        : Progressive
Bits/(Pixel*Frame)               : 0.274
Stream size                      : 10.3 GiB (88%)
Writing library                  : x264 core
Color primaries                  : BT.709-5, BT.1361, IEC 61966-2-4, SMPTE RP177
Transfer characteristics         : BT.709-5, BT.1361
Matrix coefficients              : BT.709-5, BT.1361, IEC 61966-2-4 709, SMPTE RP177

Audio
ID                               : 2
Format                           : DTS
Format/Info                      : Digital Theater Systems
Format profile                   : MA / Core
Codec ID                         : A_DTS
Duration                         : 1h 48mn
Bit rate mode                    : Variable
Bit rate                         : 1 576 Kbps
Channel(s)                       : 6 channels
Channel positions                : Front: L C R, Side: L R, LFE
Sampling rate                    : 48.0 KHz
Bit depth                        : 24 bits
Compression mode                 : Lossless
Language                         : English

+the folder cortains 5.1 channel mp4 audio stream/engish

Info:
Format                           : MPEG-4
Format profile                   : Base Media
Codec ID                         : isom
File size                        : 376 MiB
Duration                         : 1h 48mn
Overall bit rate                 : 484 Kbps

Audio
ID                               : 1
Format                           : AAC
Format/Info                      : Advanced Audio Codec
Format profile                   : LC
Codec ID                         : 40
Duration                         : 1h 48mn
Bit rate mode                    : Variable
Bit rate                         : 481 Kbps
Channel(s)                       : 6 channels
Channel positions                : Front: L C R, Side: L R, LFE
Sampling rate                    : 48.0 KHz
Compression mode                 : Lossy
Stream size                      : 374 MiB (99%)

                   
                   !!YOU NEED 3D EQUIPMENT TO WATCH THIS!!

                                    (LiG)	